<svg width="168" height="48" viewBox="0 0 168 48" fill="none" xmlns="http://www.w3.org/2000/svg">
<path d="M2.684 39.2089V22.4089H6.284V35.9689H13.892V39.2089H2.684ZM22.3139 39.4489C20.9379 39.4489 19.7299 39.1689 18.6899 38.6089C17.6659 38.0489 16.8659 37.2809 16.2899 36.3049C15.7299 35.3289 15.4499 34.2169 15.4499 32.9689C15.4499 31.9769 15.6099 31.0729 15.9299 30.2569C16.2499 29.4249 16.6979 28.7129 17.2739 28.1209C17.8499 27.5289 18.5299 27.0729 19.3139 26.7529C20.1139 26.4169 20.9859 26.2489 21.9299 26.2489C22.7939 26.2489 23.5859 26.4089 24.3059 26.7289C25.0419 27.0329 25.6739 27.4729 26.2019 28.0489C26.7459 28.6089 27.1619 29.2729 27.4499 30.0409C27.7379 30.8089 27.8739 31.6489 27.8579 32.5609L27.8339 33.6169H17.6339L17.0819 31.5049H25.0259L24.6179 31.9369V31.4329C24.5859 30.9849 24.4419 30.5929 24.1859 30.2569C23.9459 29.9209 23.6339 29.6569 23.2499 29.4649C22.8659 29.2569 22.4419 29.1529 21.9779 29.1529C21.2579 29.1529 20.6499 29.2969 20.1539 29.5849C19.6739 29.8569 19.3059 30.2569 19.0499 30.7849C18.8099 31.2969 18.6899 31.9369 18.6899 32.7049C18.6899 33.4569 18.8499 34.1209 19.1699 34.6969C19.4899 35.2569 19.9459 35.6889 20.5379 35.9929C21.1459 36.2969 21.8579 36.4489 22.6739 36.4489C23.2339 36.4489 23.7459 36.3609 24.2099 36.1849C24.6739 36.0089 25.1779 35.7049 25.7219 35.2729L27.3299 37.5529C26.8819 37.9529 26.3779 38.2969 25.8179 38.5849C25.2579 38.8729 24.6819 39.0889 24.0899 39.2329C23.4979 39.3769 22.9059 39.4489 22.3139 39.4489ZM31.5999 39.2089V23.2969H35.0079V39.2089H31.5999ZM29.2239 29.5609V26.5129H37.6239V29.5609H29.2239ZM39.7252 28.5529L38.6692 27.2809C39.3252 27.0089 39.8532 26.6729 40.2532 26.2729C40.6692 25.8569 40.8772 25.5049 40.8772 25.2169C40.8772 25.0409 40.8052 24.8729 40.6612 24.7129C40.5332 24.5369 40.3652 24.3769 40.1572 24.2329C39.7892 23.9449 39.5332 23.6889 39.3892 23.4649C39.2612 23.2249 39.1972 22.9689 39.1972 22.6969C39.1972 22.2329 39.3572 21.8649 39.6772 21.5929C40.0132 21.3209 40.4452 21.1849 40.9732 21.1849C41.4532 21.1849 41.8772 21.3129 42.2452 21.5689C42.6292 21.8089 42.9332 22.1529 43.1572 22.6009C43.3812 23.0329 43.4932 23.5369 43.4932 24.1129C43.4932 24.5929 43.3972 25.0649 43.2052 25.5289C43.0132 25.9929 42.7492 26.4249 42.4132 26.8249C42.0772 27.2249 41.6772 27.5769 41.2132 27.8809C40.7652 28.1849 40.2692 28.4089 39.7252 28.5529ZM50.4213 39.4489C49.2533 39.4489 48.2053 39.2569 47.2773 38.8729C46.3653 38.4889 45.6213 37.9449 45.0453 37.2409L47.1813 35.4169C47.6773 35.9449 48.2213 36.3289 48.8133 36.5689C49.4213 36.7929 50.0373 36.9049 50.6613 36.9049C50.8853 36.9049 51.0933 36.8809 51.2853 36.8329C51.4773 36.7689 51.6453 36.6889 51.7893 36.5929C51.9333 36.4809 52.0373 36.3529 52.1013 36.2089C52.1813 36.0649 52.2213 35.8969 52.2213 35.7049C52.2213 35.3529 52.0773 35.0809 51.7893 34.8889C51.6613 34.7929 51.4213 34.6889 51.0693 34.5769C50.7333 34.4489 50.3013 34.3129 49.7733 34.1689C48.9573 33.9609 48.2693 33.7209 47.7093 33.4489C47.1493 33.1609 46.6933 32.8329 46.3413 32.4649C46.0533 32.1609 45.8293 31.8089 45.6693 31.4089C45.5253 31.0089 45.4533 30.5689 45.4533 30.0889C45.4533 29.3209 45.6773 28.6489 46.1253 28.0729C46.5733 27.4969 47.1653 27.0489 47.9013 26.7289C48.6533 26.4089 49.4693 26.2489 50.3493 26.2489C51.0053 26.2489 51.6373 26.3289 52.2453 26.4889C52.8693 26.6489 53.4453 26.8809 53.9733 27.1849C54.5173 27.4729 54.9893 27.8169 55.3893 28.2169L53.5653 30.2569C53.2773 29.9689 52.9493 29.7209 52.5813 29.5129C52.2133 29.2889 51.8453 29.1129 51.4773 28.9849C51.1093 28.8409 50.7733 28.7689 50.4693 28.7689C50.1973 28.7689 49.9493 28.7929 49.7253 28.8409C49.5173 28.8889 49.3413 28.9689 49.1973 29.0809C49.0533 29.1769 48.9413 29.2969 48.8613 29.4409C48.7973 29.5849 48.7653 29.7449 48.7653 29.9209C48.7653 30.0969 48.8053 30.2649 48.8853 30.4249C48.9813 30.5689 49.1093 30.7049 49.2693 30.8329C49.4293 30.9289 49.6853 31.0409 50.0373 31.1689C50.4053 31.2969 50.8773 31.4409 51.4533 31.6009C52.2213 31.8089 52.8693 32.0409 53.3973 32.2969C53.9253 32.5529 54.3493 32.8489 54.6693 33.1849C54.9573 33.4729 55.1573 33.8089 55.2693 34.1929C55.3973 34.5609 55.4613 34.9609 55.4613 35.3929C55.4613 36.1769 55.2373 36.8809 54.7893 37.5049C54.3573 38.1129 53.7573 38.5929 52.9893 38.9449C52.2373 39.2809 51.3813 39.4489 50.4213 39.4489ZM58.3949 39.2089V22.4089H61.9949V39.2089H58.3949ZM60.0509 32.5369V29.4169H68.7629V32.5369H60.0509ZM60.0509 25.6489V22.4089H69.7709V25.6489H60.0509ZM78.1621 39.4489C76.8821 39.4489 75.7301 39.1689 74.7061 38.6089C73.6981 38.0329 72.8981 37.2489 72.3061 36.2569C71.7301 35.2649 71.4421 34.1369 71.4421 32.8729C71.4421 31.5769 71.7301 30.4329 72.3061 29.4409C72.8981 28.4489 73.6981 27.6729 74.7061 27.1129C75.7301 26.5369 76.8821 26.2489 78.1621 26.2489C79.4581 26.2489 80.6101 26.5369 81.6181 27.1129C82.6261 27.6729 83.4181 28.4489 83.9941 29.4409C84.5861 30.4329 84.8821 31.5769 84.8821 32.8729C84.8821 34.1369 84.5861 35.2649 83.9941 36.2569C83.4181 37.2489 82.6261 38.0329 81.6181 38.6089C80.6101 39.1689 79.4581 39.4489 78.1621 39.4489ZM78.1621 36.4969C78.8021 36.4969 79.3621 36.3369 79.8421 36.0169C80.3381 35.6969 80.7221 35.2649 80.9941 34.7209C81.2821 34.1769 81.4181 33.5609 81.4021 32.8729C81.4181 32.1529 81.2821 31.5209 80.9941 30.9769C80.7221 30.4169 80.3381 29.9849 79.8421 29.6809C79.3621 29.3609 78.8021 29.2009 78.1621 29.2009C77.5381 29.2009 76.9781 29.3609 76.4821 29.6809C75.9861 30.0009 75.5941 30.4329 75.3061 30.9769C75.0181 31.5209 74.8821 32.1529 74.8981 32.8729C74.8821 33.5609 75.0181 34.1769 75.3061 34.7209C75.5941 35.2649 75.9861 35.6969 76.4821 36.0169C76.9781 36.3369 77.5381 36.4969 78.1621 36.4969ZM93.3262 39.4489C92.0462 39.4489 90.8942 39.1689 89.8702 38.6089C88.8622 38.0329 88.0622 37.2489 87.4702 36.2569C86.8942 35.2649 86.6062 34.1369 86.6062 32.8729C86.6062 31.5769 86.8942 30.4329 87.4702 29.4409C88.0622 28.4489 88.8622 27.6729 89.8702 27.1129C90.8942 26.5369 92.0462 26.2489 93.3262 26.2489C94.6222 26.2489 95.7742 26.5369 96.7822 27.1129C97.7902 27.6729 98.5822 28.4489 99.1582 29.4409C99.7502 30.4329 100.046 31.5769 100.046 32.8729C100.046 34.1369 99.7502 35.2649 99.1582 36.2569C98.5822 37.2489 97.7902 38.0329 96.7822 38.6089C95.7742 39.1689 94.6222 39.4489 93.3262 39.4489ZM93.3262 36.4969C93.9662 36.4969 94.5262 36.3369 95.0062 36.0169C95.5022 35.6969 95.8862 35.2649 96.1582 34.7209C96.4462 34.1769 96.5822 33.5609 96.5662 32.8729C96.5822 32.1529 96.4462 31.5209 96.1582 30.9769C95.8862 30.4169 95.5022 29.9849 95.0062 29.6809C94.5262 29.3609 93.9662 29.2009 93.3262 29.2009C92.7022 29.2009 92.1422 29.3609 91.6462 29.6809C91.1502 30.0009 90.7582 30.4329 90.4702 30.9769C90.1822 31.5209 90.0462 32.1529 90.0622 32.8729C90.0462 33.5609 90.1822 34.1769 90.4702 34.7209C90.7582 35.2649 91.1502 35.6969 91.6462 36.0169C92.1422 36.3369 92.7022 36.4969 93.3262 36.4969ZM107.602 39.4489C106.498 39.4489 105.498 39.1689 104.602 38.6089C103.722 38.0489 103.026 37.2729 102.514 36.2809C102.018 35.2729 101.77 34.1369 101.77 32.8729C101.77 31.5929 102.018 30.4569 102.514 29.4649C103.026 28.4729 103.722 27.6889 104.602 27.1129C105.482 26.5369 106.482 26.2489 107.602 26.2489C108.194 26.2489 108.762 26.3449 109.306 26.5369C109.866 26.7129 110.362 26.9609 110.794 27.2809C111.226 27.6009 111.578 27.9609 111.85 28.3609C112.122 28.7449 112.282 29.1449 112.33 29.5609L111.466 29.7289V21.4489H114.85V39.2089H111.634L111.49 36.2809L112.162 36.3769C112.146 36.7609 112.01 37.1369 111.754 37.5049C111.498 37.8729 111.154 38.2089 110.722 38.5129C110.306 38.8009 109.826 39.0329 109.282 39.2089C108.754 39.3689 108.194 39.4489 107.602 39.4489ZM108.346 36.6169C109.002 36.6169 109.562 36.4569 110.026 36.1369C110.506 35.8169 110.882 35.3769 111.154 34.8169C111.426 34.2569 111.562 33.6089 111.562 32.8729C111.562 32.1209 111.426 31.4649 111.154 30.9049C110.882 30.3289 110.506 29.8889 110.026 29.5849C109.562 29.2649 109.002 29.1049 108.346 29.1049C107.722 29.1049 107.17 29.2649 106.69 29.5849C106.21 29.8889 105.834 30.3289 105.562 30.9049C105.306 31.4649 105.178 32.1209 105.178 32.8729C105.178 33.6089 105.306 34.2569 105.562 34.8169C105.834 35.3769 106.21 35.8169 106.69 36.1369C107.17 36.4569 107.722 36.6169 108.346 36.6169Z" fill="#1D1D1D"/>
<path d="M139.6 11.0438C140.084 11.0438 140.548 10.8528 140.892 10.5123C141.235 10.1718 141.431 9.70937 141.436 9.22551C141.44 8.74134 141.254 8.27491 140.916 7.92775C140.579 7.5806 140.118 7.38083 139.633 7.37195M139.441 14.6981C138.957 14.6981 138.493 14.5071 138.149 14.1666C137.805 13.8261 137.61 13.3636 137.605 12.8798C137.6 12.3956 137.787 11.9292 138.125 11.582C138.462 11.2348 138.923 11.0351 139.407 11.0262M139.6 18.3699C140.084 18.37 140.548 18.179 140.892 17.8385C141.235 17.498 141.431 17.0355 141.436 16.5516C141.44 16.0675 141.254 15.601 140.916 15.2539C140.579 14.9067 140.118 14.707 139.633 14.6981M146.943 11.0438C147.427 11.0438 147.892 10.8528 148.235 10.5123C148.579 10.1718 148.775 9.70937 148.779 9.22551C148.784 8.74134 148.597 8.27491 148.26 7.92775C147.922 7.5806 147.461 7.38083 146.977 7.37195M146.785 14.6981C146.301 14.6981 145.837 14.5071 145.493 14.1666C145.149 13.8261 144.953 13.3636 144.949 12.8798C144.944 12.3956 145.131 11.9292 145.468 11.582C145.806 11.2348 146.267 11.0351 146.751 11.0262M146.943 18.3699C147.427 18.37 147.892 18.179 148.235 17.8385C148.579 17.498 148.775 17.0355 148.779 16.5516C148.784 16.0675 148.597 15.601 148.26 15.2539C147.922 14.9067 147.461 14.707 146.977 14.6981M132.824 11.0438C133.308 11.0438 133.773 10.8528 134.116 10.5123C134.46 10.1718 134.656 9.70937 134.66 9.22551C134.665 8.74159 134.478 8.27538 134.141 7.92826C133.804 7.58115 133.343 7.38122 132.86 7.37195M132.667 14.6981C132.183 14.6981 131.719 14.5071 131.375 14.1666C131.031 13.8261 130.836 13.3636 130.831 12.8798C130.826 12.3958 131.013 11.9296 131.35 11.5825C131.687 11.2354 132.148 11.0355 132.632 11.0262M132.824 18.3699C133.308 18.37 133.773 18.179 134.116 17.8385C134.46 17.498 134.656 17.0355 134.66 16.5516C134.665 16.0677 134.478 15.6015 134.141 15.2544C133.804 14.9073 133.343 14.7073 132.86 14.6981" stroke="#FAA41A" stroke-linecap="round" stroke-linejoin="round"/>
<path d="M133.54 40.0458H146.755V35.6748C143.94 36.9173 142.299 37.1112 140.017 37.1582C137.163 37.217 135.229 36.7235 133.54 36.3005V40.0458Z" stroke="#383747" stroke-linecap="round" stroke-linejoin="round"/>
<path d="M156.781 24.2214C154.314 33.4364 144.883 38.9045 135.668 36.4356C132.743 35.6548 130.077 34.1167 127.936 31.9764C125.796 29.8361 124.258 27.1693 123.477 24.2449L156.781 24.2214Z" fill="#FAA41A" stroke="#383747" stroke-linecap="round" stroke-linejoin="round"/>
<path d="M123.468 21.2766H156.787V24.3008H123.468V21.2766Z" stroke="#383747" stroke-linecap="round" stroke-linejoin="round"/>
<path d="M144.99 21.2678C156.446 21.7202 153.566 13.5569 162.033 12.8196C162.871 12.7461 163.311 12.73 164.486 12.8049L164.53 12.7902C163.069 11.9207 160.375 10.449 158.126 11.0732C156.976 11.3934 155.185 12.6301 153.985 14.9874C150.963 21.6027 148.021 21.2546 145.627 21.2663L144.99 21.2678Z" stroke="#383747" stroke-linecap="round" stroke-linejoin="round"/>
<path d="M152.04 26.8167C151 29.9892 148.217 32.1923 144.986 32.7916" stroke="white" stroke-linecap="round" stroke-linejoin="round"/>
</svg>
